<svg width="29" height="29" viewBox="0 0 29 29" fill="none" xmlns="http://www.w3.org/2000/svg">
<path d="M13.299 3.79685C13.299 5.8938 11.5643 7.59371 9.42451 7.59371C7.2847 7.59371 5.55005 5.8938 5.55005 3.79685C5.55005 1.69991 7.2847 0 9.42451 0C11.5643 0 13.299 1.69991 13.299 3.79685Z" fill="#6C2323" fill-opacity="0.14"/>
<path d="M23.7705 3.79685C23.7705 5.8938 22.0359 7.59371 19.8961 7.59371C17.7563 7.59371 16.0216 5.8938 16.0216 3.79685C16.0216 1.69991 17.7563 0 19.8961 0C22.0359 0 23.7705 1.69991 23.7705 3.79685Z" fill="#6C2323" fill-opacity="0.14"/>
<path d="M13.299 14.0586C13.299 16.1556 11.5643 17.8555 9.42451 17.8555C7.2847 17.8555 5.55005 16.1556 5.55005 14.0586C5.55005 11.9617 7.2847 10.2618 9.42451 10.2618C11.5643 10.2618 13.299 11.9617 13.299 14.0586Z" fill="#6C2323" fill-opacity="0.14"/>
<path d="M23.7705 14.0586C23.7705 16.1556 22.0359 17.8555 19.8961 17.8555C17.7563 17.8555 16.0216 16.1556 16.0216 14.0586C16.0216 11.9617 17.7563 10.2618 19.8961 10.2618C22.0359 10.2618 23.7705 11.9617 23.7705 14.0586Z" fill="#6C2323" fill-opacity="0.14"/>
<path d="M13.299 24.3204C13.299 26.4173 11.5643 28.1173 9.42451 28.1173C7.2847 28.1173 5.55005 26.4173 5.55005 24.3204C5.55005 22.2235 7.2847 20.5235 9.42451 20.5235C11.5643 20.5235 13.299 22.2235 13.299 24.3204Z" fill="#6C2323" fill-opacity="0.14"/>
<path d="M23.7705 24.3204C23.7705 26.4173 22.0359 28.1173 19.8961 28.1173C17.7563 28.1173 16.0216 26.4173 16.0216 24.3204C16.0216 22.2235 17.7563 20.5235 19.8961 20.5235C22.0359 20.5235 23.7705 22.2235 23.7705 24.3204Z" fill="#6C2323" fill-opacity="0.14"/>
</svg>
