<svg width="119" height="117" viewBox="0 0 119 117" fill="none" xmlns="http://www.w3.org/2000/svg" >
<path shape-rendering="optimizeQuality" d="M0 58.5C0 50.1237 6.78085 43.3333 15.1455 43.3333H103.855C112.219 43.3333 119 50.1237 119 58.5V101.833C119 110.21 112.219 117 103.855 117H15.1455C6.78085 117 0 110.21 0 101.833V58.5Z" fill="#222F3E"/>
<path shape-rendering="optimizeQuality" fill-rule="evenodd" clip-rule="evenodd" d="M59.5003 21.6667C50.5381 21.6667 39.6965 28.1091 36.6106 45.2549L34.6917 55.9164L13.3984 52.0733L15.3173 41.4118C20.0306 15.2242 38.8258 -8.26517e-06 59.5003 0C80.1748 7.23203e-06 98.9701 15.2242 103.683 41.4118L105.602 52.0733L84.3089 55.9164L82.39 45.2549C79.3041 28.1092 68.4626 21.6667 59.5003 21.6667Z" fill="#222F3E"/>
<path shape-rendering="optimizeQuality" d="M69.0299 73.5635C69.0299 79.4896 64.2326 84.2937 58.3148 84.2937C52.3969 84.2937 47.5996 79.4896 47.5996 73.5635C47.5996 67.6374 52.3969 62.8333 58.3148 62.8333C64.2326 62.8333 69.0299 67.6374 69.0299 73.5635Z" fill="white"/>
<path shape-rendering="optimizeQuality" fill-rule="evenodd" clip-rule="evenodd" d="M58.3153 67.7857C60.5914 67.7857 62.4365 69.6334 62.4365 71.9127L62.4365 93.373C62.4365 95.6523 60.5914 97.5 58.3153 97.5C56.0392 97.5 54.1941 95.6523 54.1941 93.373L54.1941 71.9127C54.1941 69.6334 56.0392 67.7857 58.3153 67.7857Z" fill="white"/>
</svg>
