<svg width="25" height="25" viewBox="0 0 25 25" fill="none" xmlns="http://www.w3.org/2000/svg">
<circle cx="12.5" cy="12.5" r="12.5" fill="#6C2323" fill-opacity="0.14"/>
<path d="M9.70441 16.0817V16.4207H13.2635V16.0817C13.2757 14.5443 13.8931 13.7937 15.2005 13.031C16.8227 12.0625 17.9001 10.8156 17.9122 8.76973C17.9001 5.69483 15.37 4 11.8593 4C8.67541 4 6.04842 5.61009 6 9.15712H9.84968C9.87389 7.93442 10.806 7.20807 11.8351 7.22017C12.8762 7.20807 13.7115 7.91021 13.7236 8.96343C13.7115 10.0166 12.9004 10.6946 11.8351 11.3846C10.455 12.2562 9.70441 13.1642 9.70441 16.0817ZM9.36544 19.8103C9.34123 21.033 10.346 22.0136 11.5445 22.0136C12.7067 22.0136 13.7357 21.033 13.7478 19.8103C13.7357 18.6239 12.7067 17.6555 11.5445 17.6555C10.346 17.6555 9.34123 18.6239 9.36544 19.8103Z" fill="#FCFCFC"/>
</svg>
